# xmcd
#
# Track frame offsets: 
#        150
#        15224
#        30953
#        48228
#        66607
#        84238
#        102282
#        118016
#        135234
#        152524
#        170682
#        184132
#        201770
#        221107
#        238221
#        253393
#        290290
#        305319
#        324261
#
# Disc length: 4584 seconds
#
# Revision: 0
# Processed by: cddbd v1.5.2PL0 Copyright (c) Steve Scherf et al.
# Submitted via: ExactAudioCopy v1.0b3
#
DISCID=0211e613
DTITLE=Various Artist - Mystic Trance Vol. 3 - CD 2
DYEAR=1900
DGENRE=
TTITLE0=Eric Prydz Vs. Floyd - Proper Education (Radio Edit)
TTITLE1=DJ Dean - Dreamworld (Radio Cut)
TTITLE2=André Visior - Skyline (Original Radio Mix)
TTITLE3=Joni Pres. External Art - Yield (Radio Edit)
TTITLE4=Scotty Feat. M.C. Sherlock - God Is A DJ 2007 (Radio Version)
TTITLE5=Cosmic Culture - Northern Star (Radio Edit)
TTITLE6=CJ Stone - Storm (Radio Mix)
TTITLE7=Freddy Fader - Time After Time (David's Song) (Short Version)
TTITLE8=Mental Madness Allstars - The Anthem (Mainfield Rmx Edit)
TTITLE9=Lolo - Take My Hand (Edit)
TTITLE10=Dreamliner - Save You (Mario Lopez Radio Mix)
TTITLE11=Total Structure Feat. Lizzy - Always Tomorrow (Aerodynamic Ra
TTITLE11=dio Mix)
TTITLE12=Marninx Pres. Ecco - Intuition (Original Radio Edit)
TTITLE13=Martha and The Muffins - Echo Beach (Paralyzer Mix)
TTITLE14=ML Project Feat. D. Mand - Beautiful To Me 2006 (Mario Lopez 
TTITLE14=Radio Cut)
TTITLE15=Denga and Manus Feat. Mque - Loosing Senses (Vocal Mix)
TTITLE16=Fragma Feat. Kirsty Hawkshaw - Radio Waves (Ron Van Den Beuke
TTITLE16=n Rmx Edit)
TTITLE17=The First Trance Opera Of The World - Summer (Short Cut)
TTITLE18=Skyline Feat. Elisabeth - Travelling (Original Mix)
EXTD=
EXTT0=
EXTT1=
EXTT2=
EXTT3=
EXTT4=
EXTT5=
EXTT6=
EXTT7=
EXTT8=
EXTT9=
EXTT10=
EXTT11=
EXTT12=
EXTT13=
EXTT14=
EXTT15=
EXTT16=
EXTT17=
EXTT18=
PLAYORDER=
